<svg xmlns="http://www.w3.org/2000/svg" fill="none" viewBox="4.23 5 236.77 38.9">
<g filter="url(#filter0_d_5_9)">
<path d="M170 8C170 6.34315 171.343 5 173 5H238C239.657 5 241 6.34315 241 8V38C241 39.6569 239.657 41 238 41H173C171.343 41 170 39.6569 170 38V8Z" fill="#B200B5"/>
<path d="M10.388 13.66V18.772H18.632V23.524H10.388V29.068H19.712V34H4.232V8.728H19.712V13.66H10.388ZM35.9486 13.696C38.3006 13.696 40.1726 14.464 41.5646 16C42.9806 17.512 43.6886 19.6 43.6886 22.264V34H37.5686V23.092C37.5686 21.748 37.2206 20.704 36.5246 19.96C35.8286 19.216 34.8926 18.844 33.7166 18.844C32.5406 18.844 31.6046 19.216 30.9086 19.96C30.2126 20.704 29.8646 21.748 29.8646 23.092V34H23.7086V13.912H29.8646V16.576C30.4886 15.688 31.3286 14.992 32.3846 14.488C33.4406 13.96 34.6286 13.696 35.9486 13.696ZM55.5984 13.624C57.0144 13.624 58.2504 13.912 59.3064 14.488C60.3864 15.064 61.2144 15.82 61.7904 16.756V13.912H67.9464V33.964C67.9464 35.812 67.5744 37.48 66.8304 38.968C66.1104 40.48 64.9944 41.68 63.4824 42.568C61.9944 43.456 60.1344 43.9 57.9024 43.9C54.9264 43.9 52.5144 43.192 50.6664 41.776C48.8184 40.384 47.7624 38.488 47.4984 36.088H53.5824C53.7744 36.856 54.2304 37.456 54.9504 37.888C55.6704 38.344 56.5584 38.572 57.6144 38.572C58.8864 38.572 59.8944 38.2 60.6384 37.456C61.4064 36.736 61.7904 35.572 61.7904 33.964V31.12C61.1904 32.056 60.3624 32.824 59.3064 33.424C58.2504 34 57.0144 34.288 55.5984 34.288C53.9424 34.288 52.4424 33.868 51.0984 33.028C49.7544 32.164 48.6864 30.952 47.8944 29.392C47.1264 27.808 46.7424 25.984 46.7424 23.92C46.7424 21.856 47.1264 20.044 47.8944 18.484C48.6864 16.924 49.7544 15.724 51.0984 14.884C52.4424 14.044 53.9424 13.624 55.5984 13.624ZM61.7904 23.956C61.7904 22.42 61.3584 21.208 60.4944 20.32C59.6544 19.432 58.6224 18.988 57.3984 18.988C56.1744 18.988 55.1304 19.432 54.2664 20.32C53.4264 21.184 53.0064 22.384 53.0064 23.92C53.0064 25.456 53.4264 26.68 54.2664 27.592C55.1304 28.48 56.1744 28.924 57.3984 28.924C58.6224 28.924 59.6544 28.48 60.4944 27.592C61.3584 26.704 61.7904 25.492 61.7904 23.956ZM75.496 11.824C74.416 11.824 73.528 11.512 72.832 10.888C72.16 10.24 71.824 9.448 71.824 8.512C71.824 7.552 72.16 6.76 72.832 6.136C73.528 5.488 74.416 5.164 75.496 5.164C76.552 5.164 77.416 5.488 78.088 6.136C78.784 6.76 79.132 7.552 79.132 8.512C79.132 9.448 78.784 10.24 78.088 10.888C77.416 11.512 76.552 11.824 75.496 11.824ZM78.556 13.912V34H72.4V13.912H78.556ZM95.2572 13.696C97.6092 13.696 99.4812 14.464 100.873 16C102.289 17.512 102.997 19.6 102.997 22.264V34H96.8772V23.092C96.8772 21.748 96.5292 20.704 95.8332 19.96C95.1372 19.216 94.2012 18.844 93.0252 18.844C91.8492 18.844 90.9132 19.216 90.2172 19.96C89.5212 20.704 89.1732 21.748 89.1732 23.092V34H83.0172V13.912H89.1732V16.576C89.7972 15.688 90.6372 14.992 91.6932 14.488C92.7492 13.96 93.9372 13.696 95.2572 13.696ZM126.211 23.632C126.211 24.208 126.175 24.808 126.103 25.432H112.171C112.267 26.68 112.663 27.64 113.359 28.312C114.079 28.96 114.955 29.284 115.987 29.284C117.523 29.284 118.591 28.636 119.191 27.34H125.743C125.407 28.66 124.795 29.848 123.907 30.904C123.043 31.96 121.951 32.788 120.631 33.388C119.311 33.988 117.835 34.288 116.203 34.288C114.235 34.288 112.483 33.868 110.947 33.028C109.411 32.188 108.211 30.988 107.347 29.428C106.483 27.868 106.051 26.044 106.051 23.956C106.051 21.868 106.471 20.044 107.311 18.484C108.175 16.924 109.375 15.724 110.911 14.884C112.447 14.044 114.211 13.624 116.203 13.624C118.147 13.624 119.875 14.032 121.387 14.848C122.899 15.664 124.075 16.828 124.915 18.34C125.779 19.852 126.211 21.616 126.211 23.632ZM119.911 22.012C119.911 20.956 119.551 20.116 118.831 19.492C118.111 18.868 117.211 18.556 116.131 18.556C115.099 18.556 114.223 18.856 113.503 19.456C112.807 20.056 112.375 20.908 112.207 22.012H119.911ZM148.395 23.632C148.395 24.208 148.359 24.808 148.287 25.432H134.355C134.451 26.68 134.847 27.64 135.543 28.312C136.263 28.96 137.139 29.284 138.171 29.284C139.707 29.284 140.775 28.636 141.375 27.34H147.927C147.591 28.66 146.979 29.848 146.091 30.904C145.227 31.96 144.135 32.788 142.815 33.388C141.495 33.988 140.019 34.288 138.387 34.288C136.419 34.288 134.667 33.868 133.131 33.028C131.595 32.188 130.395 30.988 129.531 29.428C128.667 27.868 128.235 26.044 128.235 23.956C128.235 21.868 128.655 20.044 129.495 18.484C130.359 16.924 131.559 15.724 133.095 14.884C134.631 14.044 136.395 13.624 138.387 13.624C140.331 13.624 142.059 14.032 143.571 14.848C145.083 15.664 146.259 16.828 147.099 18.34C147.963 19.852 148.395 21.616 148.395 23.632ZM142.095 22.012C142.095 20.956 141.735 20.116 141.015 19.492C140.295 18.868 139.395 18.556 138.315 18.556C137.283 18.556 136.407 18.856 135.687 19.456C134.991 20.056 134.559 20.908 134.391 22.012H142.095ZM157.798 17.26C158.518 16.156 159.418 15.292 160.498 14.668C161.578 14.02 162.778 13.696 164.098 13.696V20.212H162.406C160.87 20.212 159.718 20.548 158.95 21.22C158.182 21.868 157.798 23.02 157.798 24.676V34H151.642V13.912H157.798V17.26Z" fill="#B200B5"/>
<path d="M181.223 29.908H188.167V34H175.922V12.238H181.223V29.908ZM193.361 14.904C192.431 14.904 191.667 14.6353 191.067 14.098C190.489 13.54 190.199 12.858 190.199 12.052C190.199 11.2253 190.489 10.5433 191.067 10.006C191.667 9.448 192.431 9.169 193.361 9.169C194.271 9.169 195.015 9.448 195.593 10.006C196.193 10.5433 196.492 11.2253 196.492 12.052C196.492 12.858 196.193 13.54 195.593 14.098C195.015 14.6353 194.271 14.904 193.361 14.904ZM195.996 16.702V34H190.695V16.702H195.996ZM210.378 16.516C212.403 16.516 214.015 17.1773 215.214 18.5C216.433 19.802 217.043 21.6 217.043 23.894V34H211.773V24.607C211.773 23.4497 211.473 22.5507 210.874 21.91C210.275 21.2693 209.469 20.949 208.456 20.949C207.443 20.949 206.637 21.2693 206.038 21.91C205.439 22.5507 205.139 23.4497 205.139 24.607V34H199.838V16.702H205.139V18.996C205.676 18.2313 206.4 17.632 207.309 17.198C208.218 16.7433 209.241 16.516 210.378 16.516ZM231.298 34L226.028 26.746V34H220.727V11.06H226.028V23.739L231.267 16.702H237.808L230.616 25.382L237.87 34H231.298Z" fill="white"/>
</g>
<defs>
<filter id="filter0_d_5_9" x="0.231998" y="0" width="292.768" height="100" filterUnits="userSpaceOnUse" color-interpolation-filters="sRGB">
<feFlood flood-opacity="0" result="BackgroundImageFix"/>
<feColorMatrix in="SourceAlpha" type="matrix" values="0 0 0 0 0 0 0 0 0 0 0 0 0 0 0 0 0 0 127 0" result="hardAlpha"/>
<feOffset dy="4"/>
<feGaussianBlur stdDeviation="2"/>
<feComposite in2="hardAlpha" operator="out"/>
<feColorMatrix type="matrix" values="0 0 0 0 0 0 0 0 0 0 0 0 0 0 0 0 0 0 0.25 0"/>
<feBlend mode="normal" in2="BackgroundImageFix" result="effect1_dropShadow_5_9"/>
<feBlend mode="normal" in="SourceGraphic" in2="effect1_dropShadow_5_9" result="shape"/>
</filter>
</defs>
</svg>