<svg xmlns="http://www.w3.org/2000/svg" fill="none" viewBox="15 5 71 36">
<g filter="url(#filter0_d_5_9)">
<path d="M15 8C15 6.34315 16.3431 5 18 5H83C84.6569 5 86 6.34315 86 8V38C86 39.6569 84.6569 41 83 41H18C16.3431 41 15 39.6569 15 38V8Z" fill="#B200B5"/>
<path d="M26.223 29.908H33.167V34H20.922V12.238H26.223V29.908ZM38.3614 14.904C37.4314 14.904 36.6668 14.6353 36.0674 14.098C35.4888 13.54 35.1994 12.858 35.1994 12.052C35.1994 11.2253 35.4888 10.5433 36.0674 10.006C36.6668 9.448 37.4314 9.169 38.3614 9.169C39.2708 9.169 40.0148 9.448 40.5934 10.006C41.1928 10.5433 41.4924 11.2253 41.4924 12.052C41.4924 12.858 41.1928 13.54 40.5934 14.098C40.0148 14.6353 39.2708 14.904 38.3614 14.904ZM40.9964 16.702V34H35.6954V16.702H40.9964ZM55.378 16.516C57.4033 16.516 59.0153 17.1773 60.214 18.5C61.4334 19.802 62.043 21.6 62.043 23.894V34H56.773V24.607C56.773 23.4497 56.4733 22.5507 55.874 21.91C55.2747 21.2693 54.4687 20.949 53.456 20.949C52.4433 20.949 51.6373 21.2693 51.038 21.91C50.4387 22.5507 50.139 23.4497 50.139 24.607V34H44.838V16.702H50.139V18.996C50.6763 18.2313 51.3997 17.632 52.309 17.198C53.2183 16.7433 54.2413 16.516 55.378 16.516ZM76.2977 34L71.0277 26.746V34H65.7267V11.06H71.0277V23.739L76.2667 16.702H82.8077L75.6157 25.382L82.8697 34H76.2977Z" fill="white"/>
</g>
<defs>
<filter id="filter0_d_5_9" x="-4" y="0" width="142" height="100" filterUnits="userSpaceOnUse" color-interpolation-filters="sRGB">
<feFlood flood-opacity="0" result="BackgroundImageFix"/>
<feColorMatrix in="SourceAlpha" type="matrix" values="0 0 0 0 0 0 0 0 0 0 0 0 0 0 0 0 0 0 127 0" result="hardAlpha"/>
<feOffset dy="4"/>
<feGaussianBlur stdDeviation="2"/>
<feComposite in2="hardAlpha" operator="out"/>
<feColorMatrix type="matrix" values="0 0 0 0 0 0 0 0 0 0 0 0 0 0 0 0 0 0 0.25 0"/>
<feBlend mode="normal" in2="BackgroundImageFix" result="effect1_dropShadow_5_9"/>
<feBlend mode="normal" in="SourceGraphic" in2="effect1_dropShadow_5_9" result="shape"/>
</filter>
</defs>
</svg>